<svg width="36" height="34" viewBox="0 0 36 34" fill="none" xmlns="http://www.w3.org/2000/svg">
<path d="M31.1307 10.106C28.6123 7.5798 25.0841 6.00414 21.2334 6.00648H16.1872V5.22316V0L3.21414 10.549L16.1872 21.099V15.7162V15.1472H21.2334C22.5886 15.1495 23.7741 15.6839 24.6674 16.5687C25.5529 17.4625 26.0872 18.6475 26.0895 20.0032C26.0872 21.3589 25.5528 22.5439 24.6674 23.4366C23.7741 24.3226 22.5886 24.8569 21.2334 24.8593H0V34H21.2334C25.0841 34.0023 28.6123 32.4266 31.1307 29.9005C33.6559 27.3821 35.2326 23.8539 35.2302 20.0032C35.2325 16.1526 33.6559 12.6243 31.1307 10.106Z" fill="#355651"/>
</svg>
