<svg width="33" height="34" viewBox="0 0 33 34" fill="none" xmlns="http://www.w3.org/2000/svg">
<path d="M1.32498 7.644L16.1037 1.01904L31.3921 7.644V25.99L16.1037 32.615L1.32498 25.99V7.644Z" fill="#355651"/>
<path d="M30.7848 5.93021L17.4947 0.24391C17.1187 0.0820117 16.7194 0 16.3076 0C15.8965 0 15.4978 0.0820117 15.1205 0.24391L1.83042 5.93021C0.718781 6.40575 0 7.49461 0 8.70446V25.2963C0 26.5055 0.718781 27.5943 1.83042 28.0705L15.1212 33.7568C15.4984 33.9181 15.8971 34 16.3076 34C16.718 34 17.1168 33.9181 17.4947 33.7568L30.7848 28.0705C31.8964 27.5943 32.6152 26.5055 32.6152 25.2963V8.7044C32.6152 7.49461 31.8964 6.40568 30.7848 5.93021ZM2.03203 25.2963V8.7044C2.03203 8.61721 2.04372 8.53068 2.06782 8.44548L15.7332 14.2924V31.8093L2.63042 26.203C2.26684 26.0476 2.03203 25.6911 2.03203 25.2963ZM29.9847 26.203L16.8826 31.8093V14.2925L30.5474 8.44555C30.5715 8.53075 30.5831 8.61727 30.5831 8.70446V25.2963C30.5831 25.6911 30.3483 26.0476 29.9847 26.203ZM16.3076 2.03203C16.4416 2.03203 16.5723 2.05866 16.6946 2.11139L29.5625 7.61686L16.3076 13.2882L3.05256 7.61686L15.9199 2.11139C16.0429 2.05866 16.1736 2.03203 16.3076 2.03203Z" fill="#F3F6F6"/>
</svg>
