<svg width="67" height="30" viewBox="0 0 67 30" fill="none" xmlns="http://www.w3.org/2000/svg">
<rect width="67" height="30" fill="white"/>
<path d="M17.6579 22.0507C16.8572 23.0504 15.3363 23.0504 14.5357 22.0507L9.08956 15.2502C8.04097 13.9408 8.97317 12 10.6507 12H21.5429C23.2204 12 24.1526 13.9408 23.104 15.2502L17.6579 22.0507Z" fill="#C1CECE"/>
<path d="M42.1384 9.98711C42.7167 9.98711 43.1856 9.51817 43.1856 8.93958V7.29134C43.1856 6.71307 42.7167 6.24414 42.1384 6.24414C41.5598 6.24414 41.0909 6.71307 41.0909 7.29134V8.93958C41.0909 9.51821 41.5598 9.98711 42.1384 9.98711Z" fill="#C1CECE"/>
<path d="M49.8619 9.98711C50.4402 9.98711 50.9091 9.51817 50.9091 8.93958V7.29134C50.9092 6.71307 50.4402 6.24414 49.8619 6.24414C49.2833 6.24414 48.8144 6.71307 48.8144 7.29134V8.93958C48.8144 9.51821 49.2833 9.98711 49.8619 9.98711Z" fill="#C1CECE"/>
<path d="M52.4777 7.73682H51.8296V8.93952C51.8296 10.0248 50.9469 10.9075 49.862 10.9075C48.7767 10.9075 47.894 10.0248 47.894 8.93952V7.73682H44.106V8.93952C44.106 10.0248 43.2233 10.9075 42.1383 10.9075C41.0531 10.9075 40.1704 10.0248 40.1704 8.93952V7.73682H39.5223C38.1293 7.73682 37 8.86612 37 10.2591V22.2332C37 23.6262 38.1293 24.7555 39.5223 24.7555H52.4777C53.8707 24.7555 55 23.6262 55 22.2332V10.2591C55 8.86612 53.8707 7.73682 52.4777 7.73682ZM53.0149 21.7904C53.0149 22.4349 52.4906 22.9592 51.8461 22.9592H40.1539C39.5094 22.9592 38.9851 22.4349 38.9851 21.7904V12.4221H53.0149V21.7904Z" fill="#C1CECE"/>
</svg>
