<svg width="26" height="36" viewBox="0 0 26 36" fill="none" xmlns="http://www.w3.org/2000/svg">
<path d="M22.9293 4.71777H20.2221V6.44167C20.2221 6.64901 20.1993 6.85163 20.158 7.04738H23.2192C23.5583 7.04738 23.8333 7.32246 23.8333 7.66149V31.4038C23.8333 31.7429 23.5582 32.0179 23.2192 32.0179H2.78079C2.4417 32.0179 2.16669 31.7428 2.16669 31.4038V7.66149C2.16669 7.3224 2.44177 7.04738 2.78079 7.04738H5.842C5.8007 6.85169 5.77799 6.64901 5.77799 6.44167V4.71777H3.07066C1.37481 4.71777 0 6.09259 0 7.7885V31.9804C0 33.6763 1.37481 35.0511 3.07066 35.0511H22.9293C24.6252 35.0511 26 33.6763 26 31.9804V7.7885C26 6.09259 24.6252 4.71777 22.9293 4.71777Z" fill="#355651"/>
<path d="M8.70372 8.28397H17.2963C18.314 8.28397 19.1387 7.45925 19.1387 6.44152V6.22991V4.80807V4.59653C19.1387 3.5788 18.314 2.75408 17.2963 2.75408H14.9677C14.8752 1.74327 14.0347 0.94873 13 0.94873C11.9648 0.94873 11.1242 1.74327 11.0317 2.75408H8.70372C7.68598 2.75408 6.86127 3.5788 6.86127 4.59653V4.80807V6.22998V6.44158C6.86127 7.45932 7.68598 8.28397 8.70372 8.28397ZM13 2.03207C13.4983 2.03207 13.9024 2.43624 13.9024 2.93445C13.9024 3.43326 13.4983 3.83743 13 3.83743C12.5012 3.83743 12.097 3.43326 12.097 2.93445C12.097 2.43617 12.5012 2.03207 13 2.03207Z" fill="#355651"/>
<path d="M7.56216 15.2773L8.3535 14.4861L10.5292 12.3099L9.73837 11.519L7.56216 13.6947L6.17789 12.3099L5.38647 13.1011L7.56216 15.2773Z" fill="#355651"/>
<path d="M9.73837 17.2065L7.56216 19.3822L6.17789 17.9974L5.38647 18.7887L7.56216 20.9649L8.3535 20.1736L10.5292 17.9974L9.73837 17.2065Z" fill="#355651"/>
<path d="M6.17789 23.6849L5.38647 24.4762L7.56216 26.6524L8.3535 25.8611L10.5292 23.6849L9.73837 22.894L7.56216 25.0697L6.17789 23.6849Z" fill="#355651"/>
</svg>
