<svg width="17" height="24" viewBox="0 0 17 24" fill="none" xmlns="http://www.w3.org/2000/svg">
<path d="M16.2564 3.16152C16.2564 3.16152 16.3825 3.25671 14.4206 2.61912C12.6619 2.0478 10.9983 1.92519 10.9983 1.92519L10.883 1.05049C10.8037 0.446802 10.3419 0 9.79792 0H8.4996H7.20127C6.65802 0 6.19615 0.446802 6.11622 1.05049L6.00092 1.92519C6.00092 1.92519 4.33801 2.0478 2.57929 2.61912C0.616696 3.25676 0.742797 3.16152 0.742797 3.16152C0.305489 3.29066 0 3.73515 0 4.24324V5H8.49964H17V4.24324C17 3.73515 16.6945 3.29066 16.2564 3.16152Z" fill="#355651"/>
<path d="M1.12901 21.8542C1.2331 23.0687 2.21984 24 3.40284 24H13.5972C14.7797 24 15.7669 23.0687 15.8709 21.8542L17 7H0L1.12901 21.8542ZM12.2876 10.2859C12.31 9.90451 12.628 9.61374 12.998 9.63694C13.3679 9.66009 13.6496 9.9879 13.6275 10.3694L12.9894 21.2415C12.9669 21.6229 12.6489 21.9133 12.279 21.8901C11.909 21.867 11.6271 21.5396 11.6495 21.1581L12.2876 10.2859ZM7.82874 10.3276C7.82874 9.94541 8.12908 9.63576 8.49978 9.63576C8.87052 9.63576 9.17082 9.94541 9.17082 10.3276V21.1997C9.17082 21.582 8.87048 21.8916 8.49978 21.8916C8.12903 21.8916 7.82874 21.5819 7.82874 21.1997V10.3276ZM4.00162 9.63694C4.37161 9.61379 4.68957 9.90451 4.71202 10.2859L5.35087 21.158C5.37333 21.5395 5.09135 21.8669 4.7214 21.89C4.3514 21.9132 4.03345 21.6228 4.011 21.2414L3.37215 10.3693C3.34965 9.9879 3.63162 9.66009 4.00162 9.63694Z" fill="#355651"/>
</svg>
