<svg width="28" height="38" viewBox="0 0 28 38" fill="none" xmlns="http://www.w3.org/2000/svg">
<path d="M26.7752 5.05844C26.7752 5.05844 26.9829 5.21074 23.7516 4.1906C20.8549 3.27649 18.1148 3.0803 18.1148 3.0803L17.9249 1.68078C17.7944 0.714884 17.0337 0 16.1378 0H13.9993H11.8609C10.9662 0 10.2054 0.714884 10.0738 1.68078L9.88386 3.0803C9.88386 3.0803 7.14496 3.27649 4.24824 4.1906C1.01573 5.21081 1.22343 5.05844 1.22343 5.05844C0.503158 5.26506 0 5.97625 0 6.78919V8H13.9994H28V6.78919C28 5.97625 27.4968 5.26506 26.7752 5.05844Z" fill="#355651"/>
<path d="M1.85955 34.4657C2.03099 36.4662 3.65621 38 5.60467 38H22.3953C24.3431 38 25.9689 36.4662 26.1404 34.4657L28 10H0L1.85955 34.4657ZM20.2384 15.4121C20.2754 14.7839 20.799 14.305 21.4084 14.3432C22.0178 14.3813 22.4816 14.9212 22.4452 15.5495L21.3942 33.4566C21.3572 34.0848 20.8336 34.563 20.2242 34.5249C19.6148 34.4868 19.1505 33.9475 19.1875 33.3192L20.2384 15.4121ZM12.8944 15.4808C12.8944 14.8513 13.3891 14.3413 13.9996 14.3413C14.6103 14.3413 15.1049 14.8513 15.1049 15.4808V33.3878C15.1049 34.0173 14.6102 34.5273 13.9996 34.5273C13.389 34.5273 12.8944 34.0173 12.8944 33.3878V15.4808ZM6.5909 14.3432C7.20031 14.3051 7.72399 14.7839 7.76098 15.4121L8.8132 33.3191C8.85019 33.9474 8.38576 34.4866 7.77642 34.5247C7.16702 34.5629 6.64334 34.0846 6.60635 33.4564L5.55412 15.5494C5.51706 14.9212 5.9815 14.3813 6.5909 14.3432Z" fill="#355651"/>
</svg>
