<svg width="23" height="36" viewBox="0 0 23 36" fill="none" xmlns="http://www.w3.org/2000/svg">
<path d="M11.5 18.6248C16.4153 18.6248 20.4006 14.6396 20.4006 9.72351C20.4006 4.80889 16.4153 0.822266 11.5 0.822266C6.58403 0.822266 2.59949 4.80889 2.59949 9.72351C2.59949 14.6396 6.58403 18.6248 11.5 18.6248Z" fill="#355651"/>
<path d="M22.8988 27.2001C22.5014 24.8198 20.4831 21.5294 19.037 19.9891C18.6458 19.5722 17.9668 19.7456 17.7282 19.8933C15.9138 21.012 13.7839 21.6647 11.5 21.6647C9.2161 21.6647 7.08617 21.012 5.27175 19.8933C5.03321 19.7456 4.35415 19.5722 3.96294 19.9891C2.51691 21.5294 0.498641 24.8198 0.101201 27.2001C-0.875257 33.0607 5.38556 35.1782 11.5 35.1782C17.6145 35.1782 23.8753 33.0607 22.8988 27.2001Z" fill="#355651"/>
</svg>
