<svg width="16" height="14" viewBox="0 0 16 14" fill="none" xmlns="http://www.w3.org/2000/svg">
<path d="M15.4638 11.6268L9.20826 0.791385C8.92642 0.303248 8.4012 0 7.83748 0C7.27378 0 6.74903 0.303248 6.46739 0.791385L0.211386 11.6263C-0.070462 12.1144 -0.070462 12.7207 0.211386 13.2088C0.493234 13.697 1.01823 14 1.58168 14H14.0935C14.657 14 15.1825 13.697 15.4638 13.2088C15.7457 12.7207 15.7457 12.1144 15.4638 11.6268ZM7.83772 12.218C7.2968 12.218 6.85762 11.7793 6.85762 11.2382C6.85762 10.6973 7.2968 10.2586 7.83772 10.2586C8.37861 10.2586 8.81733 10.6973 8.81733 11.2382C8.81733 11.7794 8.37861 12.218 7.83772 12.218ZM8.44134 9.0822C8.44134 9.41561 8.17088 9.68561 7.83772 9.68561C7.50407 9.68561 7.23407 9.41564 7.23407 9.0822L6.85762 4.65138C6.85762 4.11022 7.2968 3.67152 7.83772 3.67152C8.37861 3.67152 8.81733 4.11025 8.81733 4.65138L8.44134 9.0822Z" fill="#C0392B"/>
</svg>
